<?xml version="1.0" encoding="UTF-8"?>
<svg id="Laag_2" data-name="Laag 2" xmlns="http://www.w3.org/2000/svg" viewBox="0 0 772.62 156.79">
  <defs>
    <style>
      .cls-1 {
        fill: #daaf76;
      }

      .cls-1, .cls-2, .cls-3, .cls-4, .cls-5, .cls-6, .cls-7, .cls-8, .cls-9, .cls-10, .cls-11, .cls-12, .cls-13, .cls-14, .cls-15, .cls-16, .cls-17, .cls-18, .cls-19, .cls-20, .cls-21, .cls-22, .cls-23, .cls-24, .cls-25, .cls-26, .cls-27, .cls-28, .cls-29, .cls-30, .cls-31, .cls-32, .cls-33, .cls-34, .cls-35, .cls-36, .cls-37, .cls-38, .cls-39, .cls-40, .cls-41, .cls-42, .cls-43, .cls-44, .cls-45, .cls-46, .cls-47, .cls-48, .cls-49, .cls-50, .cls-51, .cls-52, .cls-53, .cls-54, .cls-55, .cls-56, .cls-57, .cls-58, .cls-59, .cls-60, .cls-61, .cls-62, .cls-63 {
        stroke-width: 0px;
      }

      .cls-2 {
        fill: #deb17b;
      }

      .cls-3 {
        fill: #9cc6ba;
      }

      .cls-4 {
        fill: #c3ba94;
      }

      .cls-5 {
        fill: #9bc8bb;
      }

      .cls-6 {
        fill: #b2bea0;
      }

      .cls-7 {
        fill: #daaf7d;
      }

      .cls-8 {
        fill: #84caca;
      }

      .cls-9 {
        fill: #a1c5b3;
      }

      .cls-10 {
        fill: #e0ae74;
      }

      .cls-11 {
        fill: #6ec6d6;
      }

      .cls-12 {
        fill: #54c0d5;
      }

      .cls-13 {
        fill: #89c9c2;
      }

      .cls-14 {
        fill: #e5ad70;
      }

      .cls-15 {
        fill: #c7b891;
      }

      .cls-16 {
        fill: #bbbc9d;
      }

      .cls-17 {
        fill: #010102;
      }

      .cls-18 {
        fill: #b2bfa5;
      }

      .cls-19 {
        fill: #e3af7b;
      }

      .cls-20 {
        fill: #a8c2aa;
      }

      .cls-21 {
        fill: #64c4d9;
      }

      .cls-22 {
        fill: #8ecac5;
      }

      .cls-23 {
        fill: #60c3d8;
      }

      .cls-24 {
        fill: #80c9ca;
      }

      .cls-25 {
        fill: #ccb78a;
      }

      .cls-26 {
        fill: #959196;
      }

      .cls-27 {
        fill: #bcbc9b;
      }

      .cls-28 {
        fill: #d2b586;
      }

      .cls-29 {
        fill: #f07f34;
      }

      .cls-30 {
        fill: #a1c5b5;
      }

      .cls-31 {
        fill: #abc2aa;
      }

      .cls-32 {
        fill: #b9bd9b;
      }

      .cls-33 {
        fill: #c6b88d;
      }

      .cls-34 {
        fill: #bebb99;
      }

      .cls-35 {
        fill: #d2b284;
      }

      .cls-36 {
        fill: #4dbfd4;
      }

      .cls-37 {
        fill: #a9c3ae;
      }

      .cls-38 {
        fill: #9bc4b1;
      }

      .cls-39 {
        fill: #6cc5d4;
      }

      .cls-40 {
        fill: #78c8d0;
      }

      .cls-41 {
        fill: #e9aa6a;
      }

      .cls-42 {
        fill: #b2c0a4;
      }

      .cls-43 {
        fill: #90cbc4;
      }

      .cls-44 {
        fill: #96c7ba;
      }

      .cls-45 {
        fill: #96c8be;
      }

      .cls-46 {
        fill: #d9b07d;
      }

      .cls-47 {
        fill: #010202;
      }

      .cls-48 {
        fill: #020202;
      }

      .cls-49 {
        fill: #5dc2d6;
      }

      .cls-50 {
        fill: #a7c2b0;
      }

      .cls-51 {
        fill: #8acac5;
      }

      .cls-52 {
        fill: #ee772b;
      }

      .cls-53 {
        fill: #ef7b2e;
      }

      .cls-54 {
        fill: #7ac9cf;
      }

      .cls-55 {
        fill: #69c5d7;
      }

      .cls-56 {
        fill: #bdba94;
      }

      .cls-57 {
        fill: #eb934b;
      }

      .cls-58 {
        fill: #e1af78;
      }

      .cls-59 {
        fill: #71c7da;
      }

      .cls-60 {
        fill: #ef782b;
      }

      .cls-61 {
        fill: #c7b68f;
      }

      .cls-62 {
        fill: #d6b37e;
      }

      .cls-63 {
        fill: #7ecbdb;
      }
    </style>
  </defs>
  <g id="Laag_1-2" data-name="Laag 1">
    <path class="cls-60" d="M125.33.47s0,0,0,0c-1.36,1.13-2.09,2.78-3.26,4.06-.03.04-.07.08-.1.12,0,.01-.02.02-.02.03-.25.32-.44.69-.64,1.04-.05.08-.1.16-.15.24-.05.1-.12.19-.19.27-7.96,10.97-15.83,22.02-23.65,33.11l-.47.67c-4.83,6.84-9.64,13.7-14.44,20.57-.05.06-.09.13-.13.19-3.58,5.11-7.15,10.22-10.72,15.33-.03.04-.06.09-.09.13-.04.05-.07.1-.11.15-2.6,3.48-4.92,7.16-7.48,10.68-.25.35-.55.7-.51,1.18,0,.01,0,.02,0,.04.02.02.04.04.06.06.55.51.38,1.17.3,1.8-.19,1.4-.54,2.77-.62,4.19.05.26.12.51.21.74.03.1.07.21.12.3h0c.67,1.67,2.03,2.65,3.85,3.21.33.1.96-.05.9.53-.24,2.01,1.31,1.83,2.41,2.2.2.06.38.15.54.27.22-.32.44-.65.66-.98h.01c11.55-15.59,22.49-31.68,33.77-47.48.57-.81.86-.86,1.46-.1,3.15,3.9,6.65,7.54,9.95,11.29.55-.39.47-.82.53-1.2.52-3.81,1.06-7.63,1.56-11.44,2.17-16.6,4.56-33.17,6.67-49.79.05-.51.54-1.13-.37-1.38ZM71.4,99.14c.16.38-.02.79.1,1.12-.16-.32-.07-.71-.1-1.12Z"/>
    <path class="cls-48" d="M268.38,128.12c.04,1.88-.52,2.17-2.22,2.13-4.5-.11-9,0-13.51-.01-1.45,0-2.49-.13-3.18-2.01-6.11-16.73-12.42-33.41-18.94-50.83,0,16.91-.02,33.57.07,50.45.01,1.81-.38,2.52-2.32,2.46-4.19-.14-8.4-.22-12.58-.02-2.06.1-2.28-.62-2.28-2.4.03-28.24.1-56.49.02-84.73-.03-1.76.43-2.27,2.2-2.24,5.33.12,10.65.07,15.98.02,1.22-.02,2.13.09,2.6,1.46,5.29,15.55,11.77,30.68,16.76,46.34.17.41.33.81.5,1.22,0-.6.02-1.21.03-1.81-.02-15.05-.01-30.09-.11-45.14-.01-1.89.71-2.14,2.31-2.1,4.09.1,8.2.16,12.28,0,2.04-.09,2.31.69,2.31,2.47.02,28.23-.03,56.49.08,84.73Z"/>
    <path class="cls-47" d="M205.33,84.37c-.53-16.49,3.78-37.15-17.75-43.54-5.71-1.6-11.54-1.42-17.32-1.1-15.89.86-24.01,9.84-24.45,24.35-.43,13.92-.32,27.85,0,41.77.02,21.78,18.26,27.34,36.99,25.12,3.85-.33,7.56-1.43,10.98-3.32,15.46-8.89,10.97-27.33,11.55-43.28ZM183.88,106.34c-.05,7.3-2.59,10.91-8.04,10.56-5.94-.39-8.92-2.55-9.13-10.87-.29-10.95-.14-21.9-.04-32.86-.2-7.83-1.38-20.81,10.18-19.35,4.11.41,6.91,3.68,6.97,8.6.11,7.78.03,15.56.03,23.34h.04c0,6.85.04,13.72-.01,20.57Z"/>
    <path class="cls-17" d="M415.88,128.36c.03,1.41-.27,1.95-1.84,1.92-4.61-.11-9.21-.02-13.83-.02-1.22,0-2.22-.08-2.79-1.63-6.06-16.97-13.27-33.68-18.83-50.76-1.42.2-.69,1.1-.59,1.8,0,16.07-.03,32.14.04,48.21,0,1.82-.34,2.52-2.34,2.43-4.19-.17-8.39-.16-12.59-.03-1.96.07-2.6-.41-2.59-2.5.07-28.04.12-56.09.05-84.12-.02-2.05.26-2.84,2.55-2.76,5.22.19,10.44.09,15.66.05.73,0,1.36,0,1.85.33.52.36.69.92.75,1.08.43,1.27,7.38,20.23,16.95,46.32.12.24.24.48.35.72l.27.41c-.04-15.45.13-30.73-.08-46.15-.04-2.43.74-2.87,2.92-2.76,3.78.19,7.59.2,11.36.01,2.2-.11,2.66.61,2.65,2.72-.07,23.94-.03,47.89-.01,71.83,0,4.3-.02,8.6.07,12.9Z"/>
    <path class="cls-47" d="M596.19,61.77c-.68-9.08-4.95-16.46-13.94-19.79-9.87-3.66-20.09-3.66-29.93-.16-17.77,6.3-13.34,28.1-13.81,43.2,0,7.38-.27,14.76.07,22.11.46,9.77,4.14,17.7,13.84,21.77,6.93,2.91,14.24,2.97,21.37,2.17,13.66-1.52,21.12-7.68,22.33-21.75,1.35-15.79,1.24-31.72.07-47.55ZM575.99,108.15c-.12,7.33-6.98,11.21-13.27,7.61-3.03-1.74-3.82-4.75-3.85-7.8-.12-15.15-.15-30.31-.01-45.46.05-5.61,3.55-8.77,8.82-8.69,5.23.09,8.29,3.41,8.34,9.2.04,7.47.01,14.94.01,22.42s.09,15.15-.03,22.72Z"/>
    <path class="cls-47" d="M699.13,95.45c-.81-1.87-.72-2.68,1.28-3.56,11.78-5.32,10.64-21.47,9.66-32.28-1.12-10.35-8.36-17.3-18.79-18.15-10.95-.89-21.9-.22-32.85-.53-2.11-.07-2.29.82-2.29,2.52.08,28.35.12,56.72.08,85.07,0,1.65.49,1.83,1.88,1.81,5.01-.09,10.03-.17,15.05-.05,2,.05,2.54-.5,2.52-2.51-.11-9.83-.08-19.66-.01-29.49,0-.88-.93-2.63,1-2.55,1.41.05,3.21-1.14,4.09,1.68,3.19,10.13,6.79,20.13,10.18,30.19.51,1.5.85,2.72,2.95,2.67,6.43-.14,12.88-.05,19.67-.05-4.39-11.85-9.56-23.13-14.41-34.76ZM690.36,75.8c-.59,3.75-2.87,5.95-6.68,6.28-2.03.17-4.08.1-6.1.37-1.76.24-2.05-.5-2.02-2.02.08-3.87.02-7.75.02-11.63h.01c0-3.87.05-7.75-.02-11.62-.03-1.48.21-2.29,1.96-2.16,5.58.23,11.73-1.14,12.82,6.19.83,4.88.76,9.74,0,14.6Z"/>
    <path class="cls-48" d="M537.34,130.27c-5.01-.02-10.03-.11-15.05.05-2.05.08-3.16-.59-3.94-2.46-4.42-10.47-8.92-20.89-13.53-31.69-1.81,4.55-4.26,8.39-3.91,13.4.44,6.11.05,12.28.15,18.42.02,1.7-.45,2.34-2.19,2.3-5.44-.09-10.87-.19-16.28,0-2.26.08-1.88-1.18-1.88-2.46-.01-27.95.12-55.9-.03-83.85-.02-2.63.72-3.21,3.21-3.1,4.8.21,9.64.23,14.44-.01,2.49-.13,2.76.77,2.74,2.91-.11,10.82-.04,21.63-.04,32.45.16.04.33.1.49.14,4.66-11.3,9.48-22.54,14.16-33.84.39-.95.69-1.6,1.84-1.59,6.21.02,12.43.01,19.14.01-5.9,12.56-11.36,24.37-17.36,36.69-.63,1.3-.67,2.24-.05,3.6,6.79,15.22,13.47,30.49,20.18,45.75,1.45,3.3,1.47,3.27-2.07,3.26Z"/>
    <path class="cls-48" d="M769.21,121.02c-3.89,6.34-10.01,9.25-16.96,10.01-6.56.71-13.27.86-19.76-1.03-11.26-3.26-15.65-11.19-16.27-21.28-.16-2.62-.89-6.1.43-7.69,1.4-1.68,4.99-.44,7.62-.51,3.18-.09,6.35.1,9.53-.05,1.84-.08,2.12.51,1.95,2.25-.37,6.08-.28,12.7,6.96,14.31,3.55.79,7.78-.7,9.23-3.23,1.95-3.43,1.46-7.66-1.52-10.66-5.98-6.04-13.11-10.71-19.58-16.16-5.76-4.88-11.69-9.68-13.67-17.48-2-7.8-1.45-15.3,3.54-21.97,3.97-5.3,9.92-7.05,16.03-7.65,5.54-.56,11.19-.6,16.71,1.04,9.64,2.86,14.97,9.9,15.53,20.86q.37,7.42-6.98,7.42h-11.63c.53-7.03-.89-18.04-10.44-14.86-3.83,1.42-5.57,5.47-4.17,9.46,1.57,4.49,5.11,7.32,8.57,10.15,7.19,5.87,14.96,11.03,21.28,17.94,7.83,8.53,9.27,19.98,3.62,29.16Z"/>
    <path class="cls-48" d="M469.86,130.29c-14.02-.04-28.06-.04-42.08.05-2.4.02-1.7-1.5-1.7-2.65-.03-14.02-.02-28.05-.02-42.07h.02c0-13.93.04-27.85-.05-41.77-.01-2.18.34-2.98,2.78-2.96,13.31.14,26.63.1,39.94.02,1.78-.01,2.24.51,2.18,2.23-.13,3.48-.15,6.96,0,10.43.09,1.89-.65,2.13-2.27,2.11-6.96-.08-13.94.02-20.9-.08-1.76-.03-2.19.48-2.16,2.2.12,5.73.12,11.47,0,17.2-.03,1.77.48,2.22,2.2,2.18,5.84-.11,11.68.03,17.52-.08,1.8-.03,2.53.34,2.42,2.34-.19,3.47-.15,6.96-.01,10.43.08,1.84-.38,2.49-2.35,2.44-5.84-.14-11.68.01-17.51-.1-1.62-.03-2.31.12-2.28,2.03.13,6.55.11,13.11,0,19.66-.02,1.64.47,2.04,2.05,2.03,7.37-.07,14.74.07,22.11-.08,2.12-.04,2.6.61,2.5,2.56-.16,3.07-.19,6.14,0,9.21.11,1.92-.43,2.64-2.4,2.64Z"/>
    <path class="cls-47" d="M650.42,128.49c.04,1.48-.36,1.81-1.88,1.8-13.73-.09-27.45-.11-41.17,0-2.14.02-2.48-.69-2.47-2.61.08-14.02.04-28.05.04-42.07h.03c0-13.83.04-27.64-.05-41.46-.01-2.4.45-3.3,3.12-3.26,12.8.15,25.6.11,38.41.02,2-.02,2.64.39,2.51,2.51-.22,3.36-.15,6.76.05,10.12.12,1.86-.49,2.18-2.18,2.16-6.66-.1-13.31.03-19.96-.1-1.92-.03-2.41.47-2.37,2.37.14,5.63.15,11.26,0,16.89-.04,1.95.56,2.38,2.41,2.34,5.83-.12,11.68.05,17.51-.1,1.98-.04,2.41.56,2.34,2.4-.15,3.58-.15,7.17-.02,10.74.07,1.83-.56,2.12-2.26,2.07-5.94-.14-11.87-.02-17.81-.09-1.4-.01-2.19,0-2.16,1.87.14,6.65.13,13.3,0,19.96-.03,1.8.72,1.92,2.15,1.91,7.16-.05,14.33.01,21.5-.07,1.66-.02,2.35.33,2.27,2.15-.15,3.48-.11,6.96-.01,10.44Z"/>
    <path class="cls-17" d="M324.01,128.49c.01.68-.11,1.13-.39,1.41-.45.45-1.18.4-1.36.39-1.39-.07-18.58-.05-42.39-.01-.23-.09-.59-.27-.92-.63-.66-.73-.64-1.63-.63-1.85,0-14.02-.01-28.04-.02-42.06h.01c0-14.02.04-28.05-.04-42.06,0-.33-.18-1.56.55-2.27.59-.57,1.51-.57,2.1-.5,4.71,0,9.41,0,14.12-.01.33.02,1.26.11,2.08.83,1.28,1.13,1.15,2.81,1.13,2.99.06,20.26.04,40.6-.06,61-.02,3.42-.03,6.83-.05,10.25,3.38-.02,6.75-.03,10.13-.05,7.21.08,12.31.1,13.83-.02.26-.02,1.07-.1,1.56.39.28.28.39.74.37,1.47-.1,3.58-.08,7.17,0,10.75Z"/>
    <path class="cls-48" d="M351.01,127.51c.02,2.38-.64,2.88-2.88,2.8-4.91-.17-9.83-.1-14.74,0-1.95.04-2.58-.55-2.56-2.62.08-28.15.09-56.29.01-84.44,0-2.04.65-2.37,2.44-2.32,5.02.1,10.04.15,15.05-.02,2.24-.08,2.7.69,2.68,2.77-.09,13.92-.04,27.84-.04,41.76h-.02c0,14.02-.07,28.05.07,42.07Z"/>
    <path class="cls-63" d="M47.83,73.06c-.32.08-.64.13-.95.15-.3.02-.61.01-.9-.04h-.01c-.61-.12-1.17-.42-1.67-.99-.27-.31-.51-.71-.95-.81-.07-.01-.15-.02-.23-.02l-.11.11c-2.53,2.52-4.6,5.42-6.87,8.15-.01.02-.03.04-.04.05-.12.15-.23.3-.35.45-.6.77-1.19,1.53-1.8,2.3-.02.04-.05.07-.08.1-5.56,7.12-11.21,14.17-16.65,21.38-3.24,4.3-7.28,7.91-11.8,10.92-.83.12-1.66.23-2.85.4,13.13-19.41,24.71-39.45,37.59-58.97.67-1.11,1.14-1.2,1.92-.19.49.62,1.07,1.17,1.62,1.75-.08.61.33,1.06.55,1.57.39.93.45,1.23-.12,1.74-.12.1-.25.21-.41.33-.07.05-.15.12-.23.18-.18.13-.09.24-.05.35.84,2.07.48,4.31.98,6.43.57,2.47.58,2.58,3.08,3.06.12.01.24.04.36.07.04.01.09.03.13.05.07.02.13.05.19.09.07.07.13.13.18.19.05.06.1.12.13.18.3.47.13.82-.67,1.01Z"/>
    <path class="cls-36" d="M36.92,108.73c-9.53,12.64-19.15,25.21-28.74,37.81-.41.55-.79,1.1-1.37,1.49-.25-.15-.41-.35-.51-.59-.02-.05-.04-.11-.06-.16h0c-.03-.11-.05-.21-.07-.32.29-1.68,1.41-2.95,2.27-4.32,6-9.64,12.12-19.2,18.1-28.85.86-1.38,1.56-2.9,2.66-3.52-2.89,1.23-6.19,2.7-9.79,3.28-1.02.16-2,.98-3.11.33-2.56.42-5.14.7-7.73.68-.79.35-1.66-.1-2.44.28-.22,0-.45,0-.68,0,.45-1.21,1.66-1.64,2.57-2.33,6.03-4.59,10.27-10.76,14.86-16.62,4.32-5.51,8.65-11.01,12.97-16.53.11.11.19.22.27.33.63.96-.06,1.9-.62,2.48-.73.76-.52,1.12-.07,1.8,1.14,1.73.59,3.68-1.13,4.2.49.52,1.71.77,1.5,1.63-.2.73-1.03.58-1.62.49-.63-.09-.87-.08-.84.7.04.83-.13,1.71-.33,2.5-.22.91.15,2.43-1.7,2.39-.3,0-.83.96-.93,1.68-.08.6-.45,1.21-1.09,1.07-1.36-.29-1.56.36-1.5,1.46.02.39-.23.75-.47,1.07-2.87,2.2-6.31,3.38-9.45,5.24,2.99.17,5.92.81,8.89.5,2.46-.25,4.92-.61,7.37-.91.49-.16,1.04,0,1.09.43.12.92.6,1.15,1.41,1.25.7.09.3.69.31,1.08Z"/>
    <path class="cls-63" d="M30.25,109.38c-8.28,11.86-16.12,24.9-23.8,37.56-.04.17-.09.33-.15.5-.96,3-3.52,5.05-4.95,7.8-.13.67-.61,1.05-1.35,1.55,1.01-3.72,2.39-7.09,3.72-10.47,4-10.18,8.07-20.34,12.1-30.51.24-.62.65-1.22.47-1.95,4.99-1,9.83-2.49,13.96-4.48Z"/>
    <path class="cls-12" d="M43.61,84.91s-.02.09-.04.13c-.05.14-.13.26-.24.36-4.93,5.67-9.78,11.42-16.04,15.73-.08-.56.18-1.07.07-1.67-.22-1.24.19-1.9,1.58-1.28.97.42,1.1-.3,1.06-.93-.05-.77.29-1.2.93-1.39,1.54-.46,1.7-1.64,1.64-2.95-.05-1.05.89-2.06.05-3.17-.15-.19.43-.32.75-.1.67.44,1.41.27,2.3.19-.54-.73-1.18-1.08-1.89-1.37-.3-.13-.34-.42-.31-.72.02-.3.21-.38.47-.28.52.2,1.13.59,1.35-.29.21-.89.59-1.84.02-2.73-.4-.62-.87-1.21-1.42-1.93-.02-.03-.05-.07-.07-.1.05,0,.1,0,.15,0,1.8-.07,1.75-1.22,1.8-2.3.01-.27.03-.53.08-.78,2.36-2.87,4.6-5.85,7.17-8.54.16.17.28.36.35.57.04.08.05.16.07.24h0c.02.3.04.59.04.89.04,1.26,0,2.52.02,3.77.04,2.75-.11,5.51.1,8.25.01.13.02.25.03.38Z"/>
    <path class="cls-49" d="M86.69,27.13c-.33.83-.37,1.56-.08,2.33,0,.04.02.07.04.1v.05c-.05,1.7-.5,3.39-.27,5.12.06.49-.43.35-.75.23-4.96-1.76-9.9-3.54-15.17-5.42,3.56-2.06,6.95-3.92,10.45-5.58,1.05.36,2.11.13,3.15,0,1.72-.2,3.26,1.54,2.62,3.15Z"/>
    <path class="cls-43" d="M87.93,38.38c-2.33,3.03-4.4,6.24-6.65,9.32-.17.23-.23.5-.31.76-.02.06-.04.12-.06.18-.01.02-.02.04-.04.07-1.41,2.75-3.56,4.97-5.19,7.57,0,0-.01.02-.02.02-.03.04-.07.07-.1.11-2.18,2.45-4.32,4.94-6.46,7.43-1.3,1.52-2.34,3.39-4.19,4.4-.06.04-.13.07-.19.1-.02.01-.05.02-.07.04-.44-.06-.96-.02-.86-.72,7.24-10.65,15.03-20.92,22.59-31.34.67-.27,1.21-.07,1.71.33,0,0,.01.01.02.02.07.05.13.1.19.16.22.6,0,1.07-.37,1.55Z"/>
    <path class="cls-29" d="M64.29,88.95c-.52,1.73-.55,3.6-.79,5.42-.04.33-.06.66-.09.99h0c-.07.99-.13,1.98-.26,2.98-.13.89-.39,1.46-1.21,1.84-.86.39-1.13-.18-1.63-.69-.87-.89-2.47-1.03-2.67-2.63-.75.72-1.09-.41-1.69-.36-1.73-1.23-3.26-2.69-4.73-4.2-.18-.65.07-1.12.44-1.54.04-.04.08-.08.12-.13.07-.08.15-.15.22-.22.24-.08.49-.08.74-.05.31.02.62.04.93.02.2,0,.41-.02.61-.04.16-.02.33-.04.49-.06,1.64-.22,3.24-.77,4.89-.91.19-.02.39-.03.59-.04.21.01.41.17.62-.01-.2.14-.32.01-.44-.11t0,0s-.03-.03-.05-.04c.79-1.01,1.93-.89,3-.94.05,0,.1,0,.16,0,.15.33,1.19-.63.79.72Z"/>
    <path class="cls-11" d="M100.4,14.05c.01.35-.3.62-.59.77-2.29,1.17-3.19,3.34-4.03,5.55-.33.88-1.18,1.36-1.7,2.08-1.8,2.45-4.37,4.2-6.06,6.75-.33.5-.83.67-1.36.42-.08-.03-.18-.08-.26-.14-.71-.73-.59-1.58-.14-2.32.35-.57.39-.9-.03-1.47-2.08-3.4-6.25.78-5.3-1.71,6.27-3.4,12.49-6.88,18.81-10.19.04-.02.08-.05.12-.07.3-.17.55-.11.56.33Z"/>
    <path class="cls-53" d="M71.09,101.56c-1.04,1.54-2.13,3.04-3.09,4.63-.49.8-.84.5-1.3.09-3.58-3.26-7.41-6.27-10.77-9.78.62-.62.74.48,1.23.35.35-.25-.42-.75.44-1.07-.16,2.46,2.63,2.37,3.4,4.15.18.41.58-.03.85-.15.5-.22.91-.41.87-1.21-.06-1.19.22-2.36.56-3.51.07-.23.13-.46.21-.69.55,2.24,2.04,3.45,4.25,3.85.44.08,1.14.16.93.63-.7,1.54.16,1.78,1.33,1.86.33.02.41.35.55.59.1.18.24.33.54.27Z"/>
    <path class="cls-40" d="M105.24,11.07c-1.15,1.55-1.83,3.66-3.35,4.63-1.01.64-1.26,1.46-1.87,2.17-2.32,2.73-4.31,5.69-6.22,8.7-.25.4-.7.56-1.07.83-1.3.93-2.48,1.95-3.13,3.49-.66,1.55-1.95,2.77-2.5,4.38,0,0,0,.02,0,.02-.02.04-.03.08-.04.12-.25.09-.49.05-.7-.11-.29,0-.55-.07-.72-.33.39-.72.25-1.55.33-2.29.12-1.07.12-2.15.42-3.2.08,0,.15-.01.22-.02.64-.08,1.11-.34,1.44-1.06.39-.86,1.18-1.46,1.89-2.13,1.87-1.78,3.63-3.71,5.29-5.69.7-.84.23-2.44,1.7-2.91-.68-2.58,2.01-2.17,2.96-3.29.32-.37.39-.53-.16-.59.04-.02.08-.05.12-.07,1.72-1.05,3.48-2.01,5.32-2.8.03.05.1.13.08.15Z"/>
    <path class="cls-24" d="M59.07,73.16c-.59,2.33-2.54,3.13-4.51,3.4-1.71.23-3.48,1.26-5.28.16-.3-.19-.71,0-.92.27-1.28,1.73-3.24,2.95-3.61,5.37-.14.91-.16,2.1-1.19,2.67-.07.04-.15.07-.22.1-.41-1.11-.36-2.27-.34-3.42.29-1.82.28-3.64,0-5.46v-4.78c.16.02.3.07.41.13.66.33.57,1.12.62,1.72.14,1.46.12,2.95-.02,4.42-.09.21.29.05.06.05-.06,0-.07-.06,0-.16.59-1.02,1.09-2.01,1.06-3.32-.02-.71.38-1.04.84-1.15h.01c.3-.07.64-.04.9.04.12.03.21.08.29.13,2.33,1.49,4.43.76,6.67-.15,1-.41,2.29.08,3.18-.87.05-.07.1-.12.16-.16.25-.17.56-.07.86-.05.34.35.68.7,1.02,1.05Z"/>
    <path class="cls-25" d="M85.09,53.83c-.02.47-.49.85-.79,1.22-1.33,1.63-2.61,3.29-3.89,4.95-.64.82-1.26,1.64-1.9,2.46-.08.11-.16.22-.25.33-.18.24-.36.47-.55.7,0,0,0,.01-.01.02-.36.47-.73.93-1.11,1.4-.06.08-.13.16-.19.25-1.55,2.77-3.56,5.18-5.76,7.47-.97,1.01-1.7,2.27-2.46,3.46-1.49,2.33-3.34,4.29-5.54,5.94-.23.17-.51.31-.65.55-.98,1.65-2.25,2.09-3.98,1.93-.05-.01-.11-.02-.16-.02h-.01c-.21-.02-.42-.05-.64-.08-1.55-.27-2.86,1.18-4.11,2.12-.9.68-1.73,1.47-2.52,2.29-.59.61-1.26.96-2.13.81-.11-.02-.21-.06-.32-.12-.19-.32-.63-.56-.32-1.04.02,0,.04-.01.05-.01.05-.02.1-.03.15-.05.74-.21,1.37-.54,1.86-1.24,1.53-2.15,3.57-3.63,6.16-4.27.05-.01.12-.02.17-.04.01,0,.03,0,.04-.01,1.09.16,2.03-.36,2.99-.72.16-.03.3-.07.44-.13.45-.18.81-.49,1.18-.81.07-.05.13-.1.19-.16.1-.1.22-.19.33-.27.05-.04.11-.08.16-.12,0,0,0,0,0,0,.15-.12.29-.23.42-.36s.24-.24.35-.38c.2-.21.43-.36.69-.49.08-.03.16-.07.24-.1h0c.15-.07.28-.16.39-.27.12-.1.22-.23.32-.38.56-.7,1.02-1.49,1.73-2.07.3-.36.59-.72.87-1.09.86-1.09,1.68-2.21,2.42-3.39.29-.45.57-.92.83-1.39,2.89-3.03,5.23-6.51,7.9-9.72,1.95-2.33,3.76-4.77,5.6-7.18.06-.03.12-.06.18-.1.06-.05.12-.1.18-.15.28-.27.53-.6,1-.52h0s0,0,0,0c.01,0,.03,0,.04,0,.29.29.38.55.36.78Z"/>
    <path class="cls-59" d="M48.64,71.02s-.02.07-.04.1c-.04.1-.08.18-.15.24h0c-.12.12-.29.18-.45.23-.2.06-.41.12-.56.24-1.58-.01-3.02-.3-3.17-2.24-.12-1.49-1.12-2.8-.53-4.49.3-.85-.62-1.96-.67-3.04-.03-.55-.21-1.1.15-1.65.63.13.37.67.5,1.06.02.07.05.13.1.19.11-.12.27-.22.29-.35,0-.06.02-.12.02-.18.08-.79-.03-1.53-.58-2.15-.4-.45-.59-.86.15-1.16,1.58,1.38,3.06,2.86,4.44,4.44-.89,1.73-1.06,3.48-.26,5.32.46,1.08.47,2.3.75,3.45Z"/>
    <path class="cls-8" d="M108,9.92s0,.02-.01.04c0,.02,0,.05-.01.07-.02.06-.04.12-.07.18-.02.05-.06.11-.1.16-.05.04-.1.08-.15.13-1.12.95-1.84,2.18-2.33,3.56-.08.24-.18.47-.29.7,0,0,0,.01-.01.02-.29.61-.68,1.14-1.31,1.48-.05.04-.12.07-.18.09,0,0-.02,0-.02.01-.02.01-.04.02-.06.04-1.3.68-2.03,2-3.01,3-1.89,1.91-3.51,4.12-4.67,6.59-.45.96-1.36,1.32-1.97,2.02-1.82,2.1-3.93,3.98-5.26,6.49-.29.55-.7,1.05-1.46.81,0,0-.02,0-.02,0-.38-2.09,1.64-3.04,2.25-4.69.65-1.74,2.22-2.75,3.65-3.92,2.55-2.3,3.58-6.07,6.2-8.37.98-.82,1.02-2.12,1.63-3.26.62,1.57,1.37.29,1.46-.04.47-1.75,1.8-2.83,2.91-4.09.67-.64,1.47-1.04,2.36-1.27.32-.19.42.01.49.27Z"/>
    <path class="cls-62" d="M77.72,65.05c-.99,1.25-1.92,2.57-2.91,3.82-.07.08-.13.17-.2.25-.03.05-.07.09-.1.13-.05.04-.11.08-.16.13-.11.08-.22.18-.32.28-.13.13-.25.27-.35.44-.02.03-.04.05-.06.08,0,0,0,0,0,.01-.14.19-.28.39-.41.58-.23.33-.45.65-.64,1-.05.08-.1.16-.15.25-.03.05-.06.1-.08.15h0c-.05.09-.08.17-.12.25h0c-.03.07-.06.14-.09.21-.07.15-.12.31-.18.47-2.57,3.52-5.53,6.72-8.3,10.08-.68.82-1.58,1.46-2.4,2.17-.81.69-1.68.54-2.54.07-.07-.03-.15-.08-.22-.14-.2-.13-.4-.29-.53-.21-.22.15-.47.27-.72.39-1.24.57-2.72.78-3.55,1.79-.75.89-1.64,1.5-2.54,2.12-.27.18-.53.36-.79.55-.12.08-.24.18-.36.27-.53.12-1.01-.04-1.48-.26-.04-.1-.06-.21-.08-.32,1.23-.46,2.18-1.28,3.02-2.26,1.27-1.51,3.15-2.21,4.66-3.41.57-.45,1.3-.05,1.96.12,1.24.33,2.26.23,3.02-1.08.86-1.49,2.55-2.18,3.74-3.4,1.86-1.9,3.13-4.2,4.75-6.25,1.44-1.81,2.97-3.58,4.54-5.28.86-.92,1.1-2.2,2-3.07.61-.41.98-1.01,1.34-1.63.25-.43.51-.91,1.04-.92.1,0,.21.01.33.05.01.03.02.05.02.08h0c.38,1.16-.62,1.76-1.16,2.46Z"/>
    <path class="cls-21" d="M54.98,69.04c-.81,1.38-2.41,1.35-3.63,1.98-.7.36-1.65.18-2.43.58-.19.1-.42,0-.47-.24h0c-.01-.07,0-.14.01-.22-.99-2.46-1.61-4.99-1.56-7.65.01-.74.79-.86,1.24-1.24,2.28,2.26,4.55,4.53,6.84,6.79Z"/>
    <path class="cls-13" d="M63.71,69.66c0,.12,0,.23-.02.35-.01.1-.03.19-.05.29-1.58.7-2.16,2.32-2.81,3.64-.99,2.01-2.66,2.94-4.52,3.57-1.83.62-3.77,1.18-5.76.46-.58-.21-.8.24-1.03.64-.65,1.15-1.54,2.04-2.63,2.82-.66.46-.87,1.29-1.23,2.01-.15.29-.31.56-.53.79-.01.01-.02.03-.03.04-.07.11-.16.21-.24.31-.17.15-.29.33-.41.52-.07.1-.14.2-.23.29-.06.06-.13.11-.2.16-.22-.05-.45-.1-.67-.15,0-.08,0-.18.01-.26.07-.21.16-.41.24-.62.38-.93.81-1.84.97-2.86.4-2.46,2.68-3.61,3.94-5.48.12-.16.69-.16.96-.04.7.33,1.21.87,2.18.61,2.72-.74,5.76-.76,7.45-3.61,1.02.07,1.18-.89,1.65-1.45.81-.99,1.56-2.02,2.35-3.03.05.01.1.02.15.04.03,0,.05.02.08.02.03.02.05.05.07.08.24.25.33.54.34.84Z"/>
    <path class="cls-10" d="M71.46,74.89c-.16.23-.36.44-.54.66-.17.2-.33.41-.45.64-.08.15-.14.32-.17.5-.56,1.33-1.56,2.34-2.53,3.38-1.82,1.95-3.44,4.06-4.88,6.3-.75,1.16-1.63,1.42-2.67.66-.84-.6-1.39-.42-2.07.18-1.34,1.22-2.8,2.26-4.89,2.55.02,0,.08.07.15.11.04.02.07.04.1.03h0c.42-.19.82-.27.76.34,0,.03-.01.07-.02.11,0,.01,0,.02,0,.04-.53.29-1.06.56-1.67.25-.23,0-.46,0-.69,0-.08.04-.16.08-.24.12-.47.25-.9.59-1.49.56-.55-.46-1.1-.93-1.64-1.39.55,0,1.1,0,1.65,0,.33-.18.66-.36.98-.55,2.06-1.22,3.97-2.7,6.05-3.89.01,0,.03-.02.04-.02.45-.27.86-.75,1.48-.32,2.64,1.03,3.55-1.35,4.86-2.64,2.03-2.01,3.88-4.22,5.66-6.45.84-1.04,1.46-2.26,2.45-3.19.15-.19.28-.42.51-.42h0s.09.01.15.03c.01,0,.03.01.04.02.02.01.04.02.07.04.7,1.21-.52,1.68-1.01,2.37Z"/>
    <path class="cls-6" d="M69.82,69.42c-.05.31-.24.57-.45.78-.22.21-.43.43-.63.66-1.18,1.3-2.05,2.83-3.04,4.28,0,0,0,.01-.01.02-.58.86-1.21,1.7-1.97,2.44-.75.76-1.58,1.34-2.44,1.87-1.02.63-2.09,1.19-3.09,1.87-.18.13-.36.26-.55.39-.02.02-.05.04-.07.05-.08.05-.16.1-.24.15-.07.04-.13.07-.2.09-.05.02-.1.03-.16.04-.2.05-.41.07-.61.08-.13.01-.27.02-.41.02-.19,0-.38,0-.57,0-2.69-.04-4.2,1.89-5.78,3.59-.99,1.06-1.89,2.11-3.53,1.82-.12-.11-.24-.22-.35-.33-.58-1.08.6-.78.88-1.16.64-.88,1.5-1.54,2.12-2.42.76-1.09,1.75-1.91,2.8-2.7.91-.69,1.79-1.06,2.97-.67,1.83.61,3.07-.72,4.45-1.55.33-.06.63-.15.92-.25,1.77-.65,2.92-2.06,3.98-3.55.13-.18.25-.37.38-.55.2-.26.39-.53.57-.81.06-.08.12-.16.16-.25,1.01-1.54,1.87-3.2,3.44-4.29.16-.05.33-.15.49-.23.13-.07.25-.12.39-.13.12-.01.24,0,.38.07h0s.06.04.09.06c.1.22.12.43.08.62Z"/>
    <path class="cls-51" d="M103.58,16.63c-.38,1.23-1.08,2.14-2.16,2.94-1.18.87-1.83,2.29-2.72,3.46-1.44,1.9-2.74,3.9-4.31,5.69-2.05,2.33-3.86,4.83-5.54,7.44-.17.27-.32.62-.75.51,0,0-.02,0-.02,0-.65.3-1.12-.3-1.7-.34.16-.35.3-.69-.04-1.01.24,0,.48-.01.72-.01.01,0,.02-.01.03-.02.33-.21.8-.35.93-.64,1.21-2.78,3.36-4.91,5.48-6.86,2.55-2.35,3.64-5.62,5.94-8.07,1.06-1.12,2.63-1.8,3.13-3.45.12-.41.57-.21.89-.08.04.05.07.12.08.18.01.02.02.04.02.07,0,.02.01.04.01.06,0,.05.01.1,0,.16Z"/>
    <path class="cls-20" d="M64.52,74.22c-.69,1.06-1.43,2.04-2.32,2.86-.89.82-1.91,1.49-3.14,1.92-1.51,1.47-3.13,2.46-5.34,1.49-.66-.29-1.15.27-1.69.58-2.01,1.18-3.21,3.18-4.72,4.84-.5.55-1.72.18-1.6,1.35-.34-.35-.68-.69-1.02-1.04-.02-1.12.8-1.46,1.66-1.73.06-.02.1.04.12.11.03.08.04.16.08.07.04-.09.08-.18.13-.27,1.15-2.3,3.23-3.7,5.2-5.19t.01-.01s.04.01.05.01c4.89,1.21,7.91-1.83,10.95-4.85.49-.49.77-1.25,1.6-1.32.02,0,.05,0,.07,0,.02,0,.03.02.05.02.16.09.27.18.33.27.25.31-.08.6-.43.89Z"/>
    <path class="cls-50" d="M116.55,5.62c-.07.04-.15.08-.21.13-.16.1-.32.21-.46.33-1.63,1.26-2.41,3.23-3.55,4.86-1.19,1.73-2.57,3.24-4.14,4.6-.13.14-.25.28-.39.41-.13.15-.27.29-.41.44-.06.06-.12.13-.18.19-.21.2-.39.41-.58.63-.57.66-1.07,1.38-1.67,2.02-.32.33-.62.61-1.01.61-.18,0-.36-.05-.58-.2h0s-.02-.04-.03-.06c-.12-.24-.13-.5.04-.7,0-.01.02-.02.02-.03,1.66-1.82,2.96-3.98,4.64-5.73.04-.05.09-.1.14-.15,1.28-1.31,2.11-2.79,3.01-4.26.12-.2.24-.4.37-.6.01-.02.03-.04.04-.07.16-.54.79-.64,1.02-1.11,1.21-.77,2.44-1.5,3.8-2.01h0c.18.21.19.45.1.7Z"/>
    <path class="cls-16" d="M119.7,4.17c-.15.08-.29.16-.42.24-.29.18-.56.37-.82.59-.76.62-1.36,1.42-1.68,2.35-.87,2.57-2.72,4.42-4.33,6.43-1.33,1.67-2.57,3.45-4.34,4.72-.02.01-.05.02-.07.03-.1.04-.2.08-.3.1-.18.05-.35.05-.53-.05t-.01,0s-.02-.01-.04-.02c-.42-1.35.62-2.2,1.33-2.91,2.58-2.58,4.79-5.42,6.61-8.56.21-.37.47-.72.78-1.02.16-.18.35-.35.56-.49,0-.22.01-.44.01-.66h0c1.28-.89,2.64-1.58,4.09-2.15.26.79-.35,1.06-.84,1.41Z"/>
    <path class="cls-39" d="M58.05,72.11c-.21.44-.47.1-.71.05-.1.07-.21.12-.32.16-.32.12-.64.12-.98.02-1.72-.49-3.46-.36-5.18-.06-.84.15-1.63.15-2.37-.23-.13-.06-.25-.14-.38-.22h-.69c.14-.1.28-.19.42-.29.2-.13.4-.27.6-.4.05,0,.09-.01.14-.02,1.49-.19,3-.45,4.31-1.15.68-.36,1.58-.22,2.07-.93,1.02,1.02,2.04,2.05,3.07,3.07Z"/>
    <path class="cls-56" d="M56.39,82.36v.03s-.02.02-.04.04c-.07.09-.15.16-.25.22-.02.02-.05.04-.07.05-.04.01-.07.02-.1.03-2.49.7-4.45,2.2-6.15,4.08-.53.59-1.09,1.16-1.76,1.6-.08.06-.16.11-.24.16.12.31.24.62.35.94-.85-.47-1.44-1.21-2.06-1.92,1.44-.49,2.44-1.39,3.53-2.51,1.5-1.54,3.01-3.61,5.7-3.34.05.08.13.12.22.15.29.07.7-.06.84.27.02.05.04.13.04.22Z"/>
    <path class="cls-35" d="M122.36,2.69s-.02.02-.02.03c-.7.87-.73,2.21-2.24,2.59-.33.08-.72,1.15-1.12,2.01-.08.18-.18.35-.26.5,0,0-.01.02-.02.02-.04.05-.08.1-.12.15-.99,1.27-1.8,2.66-2.62,4.04-.47.79-1.06,1.47-1.81,1.97-.21.15-.44.27-.69.37-.03.02-.06.03-.1.04-.03.02-.06.03-.09.04-.09-.12-.16-.24-.19-.37-.04-.1-.05-.21-.05-.32v-.04c.02-.39.16-.75.41-1.04,2-2.35,3.6-4.95,5.02-7.68.04-.07.07-.13.1-.19.21-.41.58-.67.95-.93.47-.25.86-.58,1.02-1.11.41-.32.84-.59,1.38-.59.2.06.35.17.41.35.02.05.03.1.04.16Z"/>
    <path class="cls-38" d="M51.95,79.2s-.04.09-.07.13c-1.7,1.72-3.43,3.41-5.2,5.05-.07.07-.15.13-.21.2-.59.55-1.18,1.09-1.78,1.63-.11-.12-.22-.22-.34-.34-.08-.16-.13-.32-.15-.47-.05-.36.1-.68.5-.94h0c.31-.34.62-.67.93-1.01,1.13-1.23,2.3-2.44,3.42-3.69.76-.84,1.57-1.5,2.79-.88.04.04.07.08.08.12,0,0,0,.01,0,.01.02.07.03.13,0,.19Z"/>
    <path class="cls-55" d="M39.95,104.7c-.99,1.56-1.89,2.88-3.03,4.02-.53.16.37-1.27-.78-.65-.47.25-1.3-.3-1.17-1.11.13-.8-.53-.71-.87-1,.28-.36.66-.35,1.06-.29,1.05-.11,2.2.28,3.07-.66.49-.08.98-.18,1.72-.31Z"/>
    <path class="cls-23" d="M6.8,148.03c-1.62,2.56-3.49,4.92-5.46,7.21.04-1.38,1.2-2.12,1.85-3.15,1.01-1.61,2.02-3.2,3.04-4.81h0c.07-.12.14-.22.21-.33.12.36.24.73.36,1.09Z"/>
    <path class="cls-19" d="M125.33.47c-.78,1.65-1.9,3.04-3.09,4.4-.13-.06-.22-.13-.3-.21-.35-.31-.23-.72.04-1.15.16-.27.46-.48.36-.8-.01-.07-.05-.13-.1-.21-.1-.11-.21-.22-.32-.33,1.01-.81,2.15-1.36,3.4-1.71,0,0,0,0,0,0Z"/>
    <path class="cls-22" d="M111.99,7.97c-.24.27-.5.51-.78.73-.36.3-.75.56-1.12.84-.1.04-.21.09-.32.13-.57.25-1.15.47-1.8.35-.02,0-.05,0-.08-.01-.13-.12-.26-.24-.39-.37,1.66-1.01,3.29-2.06,5.14-2.72.47.78-.63.58-.66,1.04Z"/>
    <path class="cls-36" d="M38.52,105.68c-1.09.23-2.26.79-3.37,0,.98-.44,2.02-.56,3.07-.66.05.27.79.56.3.67Z"/>
    <path class="cls-57" d="M51.89,90.64c-.23.55-.45,1.1-.69,1.66-.47-.21-.76-.58-1.04-.98.41-.55.96-.72,1.6-.69.04,0,.08,0,.13,0Z"/>
    <path class="cls-13" d="M64.92,68.24c.05.25-.12.42-.3.6-.04.02-.08.04-.12.05-.07.02-.13.04-.19.05-.32.05-.63-.02-.94-.12-.07-.02-.14-.04-.21-.07l-.09-.08c.1-.44.33-.79.73-1.02.24.45.65.41,1.06.41.03.06.05.12.06.17Z"/>
    <path class="cls-19" d="M125.7,1.86c-.15-.45.17-1.03-.37-1.38,0,0,0,0,0,0,.16-.4.44-.75.66-.13.16.47.12,1.07-.29,1.52Z"/>
    <path class="cls-26" d="M378.59,77.88c-.65.45-.25,1.24-.59,1.8-.52-1.08-.59-2.22-.41-3.44.75.35.98.93,1,1.64Z"/>
    <path class="cls-63" d="M8.55,114.54c-.77.49-1.62.27-2.44.28.76-.58,1.63-.24,2.44-.28Z"/>
    <path class="cls-44" d="M44.7,84.46c-.12.21-.21.42-.27.65-.07.24-.1.5-.08.76-.12-.1-.23-.21-.35-.32.03-.5-.04-1.06.7-1.1Z"/>
    <path class="cls-2" d="M74.42,69.09c.92-2.55,3.38-4.07,4.44-6.49,1.08-1.96,2.26-3.86,3.74-5.54,1.09-1.24,2.11-2.51,2.91-3.97,1.86-3.38,4.65-6.15,6.32-9.67.28-.58.97-.77,1.44-1.18,1.09-1.5,2.71-2.6,3.33-4.47.15-.47.41-.94,1.07-.85.74,1.35-.7,2.28-.68,3.5-4.8,6.81-9.55,13.66-14.4,20.44-.26.31-.44-.59-.64-.08-.86,2.28-3.4,3.3-4.21,5.58-.25.87-1.1,1.07-1.63,1.63-.55.38-.75,1.3-1.69,1.09Z"/>
    <path class="cls-58" d="M96.98,40.43c-.76-1.34.99-2.19.67-3.44-.12-.27.04-.41.24-.54.9-.54,1.13-1.51,1.52-2.37,1.49-1.96,2.53-4.28,4.57-5.81.42-.31.65-.79.84-1.27.86-2.17,2.29-4.17,3.7-5.81,2.09-2.42,3.69-5.21,5.88-7.48,1.76-1.82,2.63-4.14,4.25-5.98.58-.67.86-1.61,1.73-2.03.64-.31,1.11-.32.86.62-8.16,11.31-16.07,22.82-24.27,34.09Z"/>
    <path class="cls-41" d="M54.26,90.24c-.23-.43-.74-.2-1.13-.51,2.04-.96,4.11-1.81,5.55-3.62.34-.43.84-.31,1.19.09,1.19,1.36,1.98,1.15,2.9-.41,1.99-3.37,5.02-5.95,7.22-9.18.39-.27.17-1.07.84-1.06.64,0,.73.53.8,1.03-2.71,3.88-5.42,7.77-8.13,11.65-.83.99-2.17.36-3.12.99-2.04.36-3.97,1.33-6.12,1.02Z"/>
    <path class="cls-14" d="M71.62,76.58c-.57-1.32-1.1-.36-1.64.03-.22-1.46,1.27-1.81,1.88-2.72.33-.48.49-.86.51-1.38-.15-.26,0-.45.16-.63,1.22-1.27,2.56-2.46,3.26-4.15,2.15-2.2,4.01-4.63,5.82-7.1.19-.27.27-.72.67-.59.3.1-.13.67.3.84-3.65,5.23-7.31,10.47-10.96,15.7Z"/>
    <path class="cls-7" d="M121.25,6.34c-.12-1.6-2.12,1.21-2.42,1.63-.32.09-.44-.02-.34-.34.78-2.05,2.67-3.29,3.76-5.12.64.07.76.39.33.83-.45.46-.79.89-.34,1.53-.39.44-.38,1.16-.98,1.46Z"/>
    <path class="cls-53" d="M71.75,100.58v-.02s0,0,.01,0h-.01Z"/>
    <path class="cls-53" d="M71.98,99.16c-.36.46-.27.91-.23,1.39h0s-.02,0-.02,0c-1.03-.2-.47-1.27-.93-1.83-.15-.18.31-.54.7-.34.3.16.92.23.49.77Z"/>
    <path class="cls-54" d="M48.12,71.83c2.02.46,4-.23,6.02-.2,1.14.02,2.1.58,3.2.54-.05.48.11,1.08-.65,1.17-1.98.24-4.03.09-5.69,1.63-.29.27-1.4.07-2.06-.41-.45-.33-.96-.62-1.49-.81-1.28-.47-2,.1-1.9,1.41.02.32.12.77-.05.96-.75.86-1.17,1.88-1.55,3.35-.76-2.9.49-5.6-.95-7.98,0-.23,0-.46,0-.69,1.14-.28,1.31.87,1.81,1.38,1.12,1.15,2.31.48,3.46.37.21-.02-.09-.47-.15-.73Z"/>
    <path class="cls-12" d="M34.74,85.57c.04.82-1.41.73-1.23-.05.08-.84,1.2-.75,1.23.05Z"/>
    <path class="cls-54" d="M43,76.27c.55,1.82.55,3.64,0,5.46,0-1.82,0-3.64,0-5.46Z"/>
    <path class="cls-44" d="M64.52,68.75c.11-.23.23-.46.34-.68,1.36-1.82,2.97-3.43,4.43-5.16,1.97-2.33,3.79-4.82,6.16-6.79q.49.3-.01,1.31c-2.53,4.53-6.44,8-9.33,12.27-2.13,3.07-4.37,5.95-7.6,8.16-2.27,1.56-4.24,1.8-6.63,1.14-2.29-.38-2.86,1.78-4.13,2.86-1.01.86-1.72,2.08-3.04,2.6.16-1.17,1.44-1.84,1.31-3.19-.07-.69.64.13,1.02-.33.73-.89,1.75-1.55,2.15-2.69.27-.75.73-.92,1.43-.72,2.35.66,4.49,0,6.7-.84,2.39-.91,3.06-3.13,4.3-4.93.5-.73.93-1.45,1.87-1.64.2-.56.58-.99,1.02-1.37Z"/>
    <path class="cls-45" d="M107.9,10.02c.61-.46,1.37-.45,2.05-.68.51.59.08,1.01-.25,1.49-2.52,3.6-5.17,7.08-8.32,10.16-.95.93-1.34,2.22-2.16,3.23-3.06,4.28-6.93,7.98-9.26,12.78-.49,1.02-.77,2.14-1.52,3.03-.33.39-.58.85-1.16.92-1.4.58-1.55,2.2-2.58,3.09-.08.14-.17.27-.27.39-.91.94-1.56,2.05-2.26,3.15-.34.53-.55,1.49-1.59,1.03.15-1.68,1.57-2.65,2.35-3.96,1.41-2.37,3.23-4.5,4.9-6.71.31-.41.23-.85.26-1.28,1.14-2.46,2.79-4.69,4.51-6.62,2.94-3.29,5.29-6.98,8.05-10.36.87-1.07,2.1-1.9,2.81-3.17,1.96-1.84,3.26-4.12,4.44-6.49h0Z"/>
    <path class="cls-5" d="M80.57,48.61c.89-.18,1.09-1.01,1.49-1.64.65-1.02,1.15-2.16,2.26-2.8.48.72.09,1.34-.32,1.86-.81,1.04-1.29,2.26-1.98,3.37-1.39,2.22-3.21,4.13-4.67,6.3-.65.65-.81,2.05-2.25,1.46,0-.38.74-.51.34-1.03,1.41-2.71,3.57-4.9,5.12-7.51Z"/>
    <path class="cls-52" d="M54.26,90.24c2.1,0,4-1.17,6.12-1.02.22.02.44.05.66.07.01.07.02.14.03.21-2.53.48-5.05.97-7.58,1.44-.33.06-.69.02-.92-.3.56-.13,1.12-.26,1.68-.39Z"/>
    <path class="cls-60" d="M67.22,99.65c-.01.21-.15.31-.28.15-.16-.2-.63-.01-.54-.43.02-.09.27-.17.42-.17.27,0,.37.21.4.45Z"/>
    <path class="cls-28" d="M93.55,42.46c-2.44,1.81-3.07,4.92-5.06,7.05-1.59,1.7-2.38,3.97-3.91,5.67-2.11,2.33-3.57,5.14-5.72,7.43-.87-.02-1,.78-1.41,1.27-.38.45-.53,1.15-1.32,1.12,2.55-3.32,5.1-6.65,7.65-9.97.45-.59,1.28-1.01.89-1.98.01-.08.03-.15.04-.23.3-.53.61-1.05.8-1.64,1.48-2.69,3.51-5,5.19-7.55,3.12-4.71,6.32-9.36,9.43-14.08,1.91-3.06,4.91-5.93,6.79-8.84.07-.14.15-.28.23-.41,1.34-2.15,3.41-3.7,4.86-5.77.29-.42.64-.98,1.36-.75,0,.23,0,.46,0,.68-.04.46-.32.81-.56,1.17-.34.38-.78.68-.96,1.19-.59,1.11-1.26,2.12-2.31,2.9-.8.6-1.25,1.51-1.72,2.45-2.39,4.49-6.08,8.1-8.79,12.41-1.73,2.68-3.56,5.32-5.48,7.88Z"/>
    <path class="cls-15" d="M105.85,22.66c-.81,1.05-1.03,2.59-2.52,3.1-.08.03-.14.17-.19.27-1.87,3.43-4.54,6.31-6.49,9.71-1.94,3.37-4.47,6.4-6.74,9.59-1.42,2-2.81,4.01-4.21,6.01-.36.56-.6,1.19-1.03,1.71,0,0,0,0,0,0-.34.34-.68.68-1.03,1.02-.79-1.4.65-2.13.95-3.19.64-1.13,1.37-2.2,2.24-3.17.78-.46,1.07-1.28,1.5-2,.13-.28.29-.53.51-.75.44-.34.55-.86.75-1.34,1.34-2.19,3.09-4.12,4.23-6.46.61-1.27,1.7-2.21,2.53-3.34,1.37-2.66,3.05-5.07,4.92-7.43,1.42-1.8,3.03-3.48,4.31-5.4.38-.58.79-1.29,1.72-1.08.14.25.11.47-.07.69h0c-.49.66-.96,1.33-1.37,2.05Z"/>
    <path class="cls-4" d="M85.01,51c-.37,1.06-1.48,1.8-1.37,3.07-4.05,5.36-8.25,10.59-12.44,15.84-.31.38-.81.6-1.22.9-1.16,2.19-2.91,3.98-4.1,6.14-.76.52-1.13,1.38-1.71,2.05-.32.26-.76.34-1.02.68-.23.11-.45.23-.68.34-.24.45-.82.55-1.03,1.02h0c-.72.4-1.39.88-2.05,1.37-.99.38-1.87,1.26-3.07.68-.26-.15-.54-.29-.34-.68h.34c.33-.25.77-.33,1.03-.68h0c3.85-1.73,6.84-4.33,9.28-7.86,5.25-7.89,12.26-14.69,17.23-22.69.35-.29.71-.54,1.16-.18Z"/>
    <path class="cls-33" d="M55.98,82.41c.11.23.23.45.34.68-2.6,1.03-5.04,2.26-6.5,4.83-.48.85-1.22.87-2.04.64,2.18-2.79,4.5-5.39,8.2-6.14Z"/>
    <path class="cls-33" d="M65.88,76.95c.86-2.38,2.65-4.15,4.1-6.14.13,1.18-.88,1.76-1.42,2.56-.82,1.24-1.58,2.55-2.69,3.58Z"/>
    <path class="cls-33" d="M59.39,82.41c.44-.82,1.15-1.23,2.05-1.37-.56.63-1.04,1.4-2.05,1.37Z"/>
    <path class="cls-33" d="M63.15,79.68c.03-.69.53-.69,1.02-.68-.19.46-.53.68-1.02.68Z"/>
    <path class="cls-33" d="M61.44,81.05c.01-.67.59-.78,1.03-1.02-.01.67-.59.78-1.03,1.02Z"/>
    <path class="cls-22" d="M107.9,10.02c.09,1.18-.15,2.17-1.2,2.94-.46.34-.8.96-1.01,1.52-.41,1.09-1.12,1.75-2.23,2.02,0-.11,0-.23,0-.34,1.38-1.01,1.51-2.73,2.31-4.07.54-.9,1.14-1.67,2.13-2.07Z"/>
    <path class="cls-1" d="M58.71,85.14c-2.38,1.43-4.78,2.84-7.14,4.3-.45.28-.86.53-1.4.48,1.95-1.24,2.95-3.79,5.59-4.09.5-.06.7-.5,1.03-.8.64-.58,1.34-.93,1.92.11Z"/>
    <path class="cls-10" d="M75.79,67.73c-.23,2.03-1.73,3.18-3.08,4.44-.53-.7.42-1.1.34-1.71.11-.11.23-.23.34-.34.77.09.51-.85,1.03-1.02,0,0,0,0,0,0,.67-.24.86-.96,1.37-1.37Z"/>
    <path class="cls-2" d="M73.06,70.46c.51.69-.46,1.09-.34,1.71-.11.11-.23.23-.34.34-.23.11-.46.23-.68.34.13-.98.75-1.68,1.37-2.39Z"/>
    <path class="cls-2" d="M74.42,69.09c-.2.48.04,1.4-1.03,1.02.03-.65.37-.99,1.03-1.02Z"/>
    <path class="cls-43" d="M64.52,68.75c-.02.69-.48,1.07-1.02,1.37-.11-.45-.22-.91-.33-1.36.45-.34.91-.01,1.36,0Z"/>
    <path class="cls-32" d="M83.99,51.34c-.89,2.77-2.97,4.8-4.7,6.96-2.14,2.68-4.15,5.48-6.4,8.06-3.84,4.03-9.82,15.42-15.54,15.36.3-1.21,1.52-1.32,2.34-1.73,3.08-1.55,5.26-3.98,6.87-6.9.87-1.59,2.63-2.5,3.09-4.34.34-1.59,1.75-2.42,2.64-3.62,1.59-2.16,3.24-4.28,4.86-6.43,1.26-1.55,3.19-2.71,3.54-4.82.07-.23.2-.43.37-.61.22-.23.47-.41.73-.59.99-.39.94-1.97,2.26-1.97.16.22.15.43-.04.62Z"/>
    <path class="cls-31" d="M64.52,74.22c.09-.34.54-.68,0-1.03-.18-.96.47-1.61.93-2.27,3.15-4.47,7.01-8.39,10.14-12.88.16-.23.42-.38.67-.51.31-.14.63-.26.96-.06.35.76-.12,1.3-.53,1.84-2.6,3.45-5.27,6.84-8.08,10.12-1.39.82-2.07,2.24-2.94,3.5-.33.48-.36,1.23-1.16,1.29Z"/>
    <path class="cls-42" d="M68.62,69.44c.75-2.18,2.76-3.4,3.98-5.22,1.51-2.25,3.41-4.24,4.56-6.73,1.06-1.44,1.83-3.18,3.76-3.75.48,1.56-.72,2.51-1.59,3.25-1.51,1.28-2.52,2.9-3.7,4.41-1.95,2.49-3.73,5.12-5.99,7.37l-1.03.68Z"/>
    <path class="cls-31" d="M59.05,79c2.12-1.26,3.79-3.02,5.47-4.78-.44,2.07-3.35,4.61-5.47,4.78Z"/>
    <path class="cls-32" d="M57.35,81.73c-.05.67-.28,1.06-1.03.68-.34-.23-.68-.45-1.02-.68.68,0,1.37,0,2.05,0Z"/>
    <path class="cls-9" d="M76.47,57.83c-1.63,1.34-2.67,3.18-3.88,4.84-1.81,2.51-4.12,4.59-5.87,7.15-.76,1.11-1.39,2.3-2.21,3.38-1.71,1.68-3.15,3.58-5.29,4.88-2.37,1.44-4.58,2.67-7.35,1.27,0-.11,0-.23,0-.34,4.5.71,7.93-1.88,10.51-5.37.84-1.08,1.97-1.97,2.76-3.2,2.31-3.59,5.11-6.8,7.95-9.97.85-.94,1.35-2.2,2.01-3.31,1.27.13,1.22-1.31,2.05-1.71.21-.19.44-.22.69-.07.43,1.31-1.03,1.58-1.37,2.46Z"/>
    <path class="cls-18" d="M83.99,50.66c-.82.68-1.02,1.89-2.05,2.39-.52-.27-.51-.65-.21-1.07.21-.3.55-.53.45-.97,1.33-2.37,2.76-4.68,4.25-6.93,1.35-2.07,3.57-3.7,4.47-6.09,3.03-6.1,7.6-11.13,11.69-16.51,1.19-1.77,3.13-3.06,4.28-4.96h0c.44-.25.77-.59,1.02-1.02,2.08-1.96,3.84-4.2,5.33-6.61.86-1.39,1.49-2.83,3.21-3.3-2.03,3.6-4.23,7.03-7.34,9.86-.82.75-1.73,1.8-1.88,3.12-1.62,2.6-3.81,4.74-5.68,7.14-1.39,1.78-3.04,3.37-3.97,5.45-.7,1.56-2.24,2.55-2.77,4.21-2.71,4.8-6.09,9.14-9.2,13.67-.56.42-.92,1.03-1.4,1.53-.07.04-.14.07-.21.11Z"/>
    <path class="cls-37" d="M106.88,16.51c-.44,1.87-2.02,2.97-3.16,4.32-.45.53-1.02.95-1.29,1.64-.14.36-.37.7-.63.99-3.77,4.34-7.48,8.73-10.12,13.9-.12.24-.34.44-.52.66-.24-.05-.4-.2-.49-.43-.13-.72.09-1.34.53-1.9.37-.55.68-1.15.93-1.77.23-1.1,1.03-1.87,1.66-2.71,1.85-2.47,3.94-4.77,5.68-7.33.76-1.06,1.53-2.1,2.29-3.15.4-.55.74-1.32,1.68-1.15,1.3.02,1.58-1.22,2.28-1.91.38-.37.61-.91,1.13-1.16Z"/>
    <path class="cls-3" d="M103.46,19.58c-1.71,1.09-2.19,3.22-3.76,4.44-.23.19-.46.22-.68,0,1.39-3.4,4.49-5.43,6.63-8.22,1.57-2.05,3.17-4.11,4.3-6.46.51-.72,1.21-1.14,2.05-1.37-.94,1.79-1.63,3.65-3.36,5.03-1.41,1.13-2.14,3.01-3.38,4.41-.62.7-1.48,1.22-1.8,2.17Z"/>
    <path class="cls-37" d="M107.9,15.49c-.03.65-.37.99-1.02,1.03.22-.46.56-.8,1.02-1.03Z"/>
    <path class="cls-27" d="M94.58,35.29c-.02-1.05.91-1.55,1.31-2.31,1.3-2.45,2.76-4.87,4.62-6.8,2.37-2.45,3.98-5.53,6.71-7.63.23-.11.46-.23.69-.34.49.86-.25,1.22-.69,1.7-1.76,2.01-3.7,3.87-5.16,6.15-1.09,1.69-2.57,3.1-3.69,4.81-.65.99-.79,2.25-1.74,3.04-.52.7-1.08,1.34-2.05,1.37Z"/>
    <path class="cls-61" d="M107.22,19.92c.23-.57.46-1.14.69-1.7,3.17-3.47,6.63-6.7,8.52-11.17.59-1.4,1.6-2.57,3.09-3.17-.91,2.24-2.47,4.1-3.58,6.21-.71,1.35-2.08,2.21-2.57,3.68-2.05,2.28-4.1,4.55-6.15,6.83,0-.23,0-.46,0-.69Z"/>
    <path class="cls-46" d="M93.55,42.46c1.19-2.68,3.13-4.88,4.66-7.36,1.47-2.39,2.95-4.84,4.84-6.89,1.53-1.66,2.5-3.65,3.98-5.32.89-1,1.02-2.75,2.18-3.49,1.19-.76,1.77-1.81,2.45-2.89.24-.45.81-.55,1.02-1.02,0-.49.23-.83.68-1.02,2.19-1.92,3.15-4.75,5.12-6.83.11.11.23.23.34.34-1.67,3.33-4.23,6.06-6.35,9.07-.99,1.4-1.52,3.52-3.63,4.04-1.18,2.61-2.73,5.37-4.62,7.45-1.64,1.84-2.89,3.94-4.53,5.73-.58.79-.96,1.72-1.71,2.39-.11.11-.23.23-.34.34-.47.19-.61.6-.74,1.05-.55,1.9-2.18,2.99-3.36,4.42Z"/>
    <path class="cls-2" d="M97.99,36.65c.36-.95.83-1.81,1.71-2.39-.43.89-.37,2.14-1.71,2.39Z"/>
    <path class="cls-30" d="M99.02,24.02c.23,0,.46,0,.68,0-1.84,3.1-4.35,5.69-6.49,8.55-.39.52-.55,1.09-.68,1.69-.79.3-.82,1.06-1.02,1.71-.7.38-.36,1.18-.68,1.71-1,2.3-2.34,4.32-4.55,5.64-.17-.04-.3-.13-.39-.28-.27-1.18.84-1.73,1.19-2.63,1.39,0,1.61-1.34,1.93-2.1,1.27-3.02,2.98-5.76,4.98-8.3,1.34-1.71,3.09-3.08,4.05-5.11.17-.37.66-.59,1-.88Z"/>
    <path class="cls-30" d="M81.94,49.29c.19-1.14.71-2.16,1.41-3.04.5-.64.86-1.29.99-2.08,0-.11,0-.23,0-.34.6-.16.84-1.2,1.71-.69h0c-.57,2.52-1.71,4.69-3.86,6.22-.08-.03-.16-.05-.24-.08Z"/>
    <path class="cls-5" d="M86.04,43.14c-.57.23-1.14.46-1.71.69,1.16-.94,1.31-2.68,2.73-3.41.26,1.14-1.29,1.59-1.03,2.73Z"/>
    <path class="cls-30" d="M77.84,55.44h-.68c1.41-2.19,2.93-4.29,4.78-6.15,0,0,0,0,0,0,.46.5.38,1.04.05,1.54-1.05,1.59-2.27,3.04-3.54,4.45-.16.18-.37.23-.61.16Z"/>
    <path class="cls-61" d="M105.85,22.66c.14-.89.55-1.61,1.37-2.05.03,1.01-.73,1.49-1.37,2.05Z"/>
    <path class="cls-25" d="M84.67,53.05c.12-.7.34-1.35,1.03-1.71.08.82-.33,1.35-1.03,1.71Z"/>
    <path class="cls-35" d="M112.68,15.49c-.01.67-.59.78-1.02,1.02.01-.67.59-.78,1.02-1.02Z"/>
    <path class="cls-34" d="M94.58,35.29c.68-.46,1.37-.91,2.05-1.37-.02,1.14-1.21,1.39-1.69,2.24-1.49,2.7-3.2,5.27-5.15,7.66-.26.44-.32.98-.68,1.37-.27.15-.33.4-.34.68-.88.43-1.04,1.44-1.71,2.05-.68,1.02-1.37,2.05-2.05,3.07-.34.11-.68.23-1.02.34,0-.23,0-.46,0-.68,0,0,0,0,0,0,.65-.41.73-1.28,1.36-1.71,1.41-3.06,3.83-5.45,5.64-8.24.85-1.31,1.59-2.68,2.43-4,.32-.5.51-1.16,1.16-1.42Z"/>
    <path class="cls-4" d="M87.06,47.92c.32-.89.59-1.83,1.71-2.05-.67.6-.63,1.79-1.71,2.05Z"/>
    <path class="cls-4" d="M89.11,45.19c.06-.54.24-1.02.68-1.37.03.59-.06,1.11-.68,1.37Z"/>
    <path class="cls-37" d="M77.84,55.44c1.22-1.53,2.4-3.09,3.67-4.57.43-.5.4-1.02.43-1.57,1.98-1.64,2.88-4,4.1-6.15,2.17-1.29,3.11-3.7,4.78-5.46.11.11.23.23.34.34-.2,2.26-2.02,3.66-3.29,5.1-2.12,2.63-3.68,5.46-5.59,8.21-.45.63-1,1.21-1.03,2.05-.11.11-.23.23-.34.34-1.55.95-2.15,2.85-3.76,3.75-.23.11-.46.23-.68.34.11-.99,1.16-1.45,1.37-2.39Z"/>
    <path class="cls-42" d="M81.26,53.39c-.51-1.11.35-1.53,1.03-2.05.41.67-1.04.97-.34,1.71-.23.11-.45.23-.68.34Z"/>
    <path class="cls-32" d="M85.35,48.95c-.42.6-.22,1.69-1.36,1.71.2-.77.51-1.46,1.36-1.71Z"/>
    <path class="cls-37" d="M91.5,35.97c0-.77-.11-1.61,1.02-1.71-.34.57-.68,1.14-1.02,1.71Z"/>
  </g>
</svg>
