<?xml version="1.0" encoding="UTF-8"?>
<svg id="Laag_2" data-name="Laag 2" xmlns="http://www.w3.org/2000/svg" viewBox="0 0 442.99 460.69">
  <defs>
    <style>
      .cls-1 {
        fill: #111010;
        stroke-width: 0px;
      }
    </style>
  </defs>
  <g id="Laag_1-2" data-name="Laag 1">
    <g>
      <path class="cls-1" d="M194.75,371.77c2.25-2.43,2.84-4.87,1.78-7.93-1.65-4.77-3.3-9.57-4.45-14.48-2.35-10.02-.94-19.77,3.07-29.15,1.98-4.62,4.21-9.14,6.33-13.7-.18-.15-.35-.3-.53-.45-3.18,3.67-6.89,7.03-9.41,11.11-2.47,4.02-3.73,8.79-5.45,13.03-1.08-3.43-1.12-7.36-.27-11.34,1.39-6.48,5.03-11.75,8.82-17.02,2.61-3.63,4.91-7.52,6.98-11.49.78-1.51.94-3.63.66-5.35-2.65-16.38,1.79-30.77,11.85-43.69,4.13-5.3,8.3-10.57,12.19-16.05,12.26-17.26,17.49-36.88,19.08-57.71.61-7.94-.2-15.53-3.25-22.99-.91-2.24-.25-5.24.1-7.84.9-6.62,2.03-13.21,2.91-19.87-3.19,6.91-5.56,14.09-6.29,21.84-2.47-1.74-2.67-2.09-2.23-5.05,4.91-33.12,14.66-64.46,32.9-92.94,6.99-10.91,14.49-21.09,25.42-28.3C306.06,5.1,317.97-.16,331.52,0c4.11.05,8.2,1.67,12.31,2.54,1.23.26,2.48.62,3.72.61,5.48,0,10.36,1.72,14.87,4.82-6.39.08-12.79-.25-18.66,3.17,1.2,0,2.4.08,3.59-.01,7.19-.58,14.35-.61,21.42,1.1,10.65,2.58,18.06,9.6,24.3,18.06,8.75,11.86,14.44,25.21,18.32,39.33,6.3,22.93,9.3,46.39,9.86,70.11.42,18.13,2.01,35.94,7.37,53.38,4.44,14.46,5.24,29.26,2.33,44.23-2.02,10.41-.37,20.51,3.39,30.33,1.84,4.81,3.77,9.58,5.52,14.42,3.52,9.71,4.15,19.54,1.09,29.52-.33,1.08-.34,2.43-.01,3.51,3.96,13.02,1.85,25.46-3.28,37.68-2.45,5.85-5.23,11.63-6.97,17.69-3.21,11.21-2.03,21.55,8.29,29.16-4.41.85-10.68-3.31-14.29-9.47-3.15-5.36-3.92-11.32-3.93-17.93-6.21,11.16-11.07,21.97-6.03,34.43,1.38,3.41,2.98,6.73,4.55,10.06,6.69,14.22.82,29.41-10.52,38.43-.4.32-.89.54-1.56.67,4.02-5.98,6.92-12.31,6.98-19.61.06-7.34-3.27-13.34-7.64-19.34-.07.67-.17.94-.11,1.18,2.9,12.09-.02,23.15-5.89,33.71-1.29,2.33-2.24,4.85-3.55,7.16-.43.76-1.5,1.64-2.29,1.64-10.68.11-21.36.12-32.04,0-.88,0-2.12-.93-2.58-1.76-5.33-9.65-8.66-19.88-8.64-31.03,0-.15-.15-.31-.38-.78-2.17,5.59-3.37,11.17-2.85,16.85.51,5.51,1.85,10.95,2.87,16.7-.83-.9-1.71-1.65-2.34-2.57-7.27-10.57-10.1-22.11-5.28-34.26,5.52-13.92,11.83-27.53,18.1-41.14,6.13-13.28,13.08-26.21,17.01-40.39,1.59-5.74,2.62-11.64,3.94-17.64.19.27.46.48.5.74,1.66,9.84,5.81,18.77,9.98,27.7,5.37,11.49,4.25,22.51-2.49,33.1-.32.51-.76.94-1.4,1.33,3.09-7.23,4.04-14.6,2.05-22.26-.38,2.49-.61,5.02-1.18,7.47-1.86,8-5.62,15.15-10.05,21.99-4.17,6.43-8.1,13.01-9.72,20.61-2.83,13.23,1.69,24.46,9.79,34.61,1.65,2.06,3.54,3.93,5.33,5.88.21-.14.41-.28.62-.41-.87-1.39-1.76-2.77-2.61-4.18-4.54-7.5-7.84-15.46-8.15-24.34-.37-10.94,4.6-19.87,11.04-28.18,1.69-2.18,3.4-4.35,5.11-6.52,10.77-13.66,11.77-28.23,4.28-43.73-4.31-8.92-7.38-18.25-8.4-28.18-1.2-11.73.95-23.08,3.48-34.45,2.51-11.3,5.19-22.62,6.79-34.07,2.36-16.94-1.28-33.35-6.22-49.48-4.4-14.36-8.18-28.87-10.38-43.74-.61-4.09-.92-8.21-.96-12.43.24.62.55,1.22.7,1.86,4.42,18.75,10.17,37.09,16.86,55.15,5.31,14.33,9.29,29.05,8.52,44.46-.44,8.77-1.67,17.64-3.79,26.15-4.65,18.6-3.34,36.26,5.68,53.32,4.26,8.06,8.08,16.34,9.68,25.44,1.16,6.61.99,13.19-.29,19.76-.1.49-.11,1,0,1.54,2.57-4.37,3.64-9.18,4.06-14.14.91-10.74-1.95-20.74-5.94-30.59-3.41-8.42-6.76-16.92-9.27-25.64-2.73-9.46-1.66-19.19.11-28.76,2.01-10.86,4.39-21.64,3.89-32.82-.49-10.98-3.43-21.39-6.38-31.86-5.09-18.06-9.96-36.19-14.83-54.32-6.32-23.53-8.98-47.73-12.75-71.72-.86-5.5-1.91-10.97-2.87-16.45l-.79.09c.66,15.25,1.31,30.5,1.97,45.81-.95-3.78-2.13-7.54-2.81-11.39-2.81-15.94-5.41-31.91-8.21-47.86-1.44-8.2-3.68-16.14-8.58-23.09-3.39-4.8-7.71-8.13-13.72-8.81-1.06-.12-2.14-.02-3.65-.02,2.4,1.36,4.52,2.33,6.39,3.66,7.62,5.41,11.08,13.44,12.84,22.15,1.25,6.19,1.87,12.58,2.09,18.9.71,19.88,4.48,39.26,8.53,58.65,2.18,10.42,3.21,21.09,4.85,31.62,2.42,15.48,5.9,30.7,11.01,45.54,5.37,15.61,9.43,31.53,7.6,48.17-1.14,10.39-3.12,20.74-5.39,30.96-2.75,12.34-4.54,24.78-5.75,37.35-1.82,18.91-8.74,36.21-17.09,53.03-9.61,19.36-19.52,38.6-26.53,59.12-1.13,3.3-2.12,6.66-3.09,10.01-1.03,3.55-2.41,4.56-6.08,3.67-4.74-1.15-9.42-2.53-14.12-3.86-25.34-7.14-50.78-13.91-76.69-18.72-3.07-.57-3.06-.63-6.03,1.7,20.93,5.12,41.77,10.22,62.6,15.32-.01.36-.03.71-.04,1.07-24.76-1.5-48.01,3.19-69.47,16.93v-29.16c-1.9,1.18-3.36,2.04-4.78,2.97-8.77,5.77-17.54,11.61-27.51,15.14-4.38,1.55-9.04,2.68-13.65,3.08-7.68.67-13.54-2.84-16.47-10.01-3.09-7.57-5.83-15.31-8.26-23.11-9.7-31.1-11.7-63.21-12.28-95.51-.34-18.77-.86-37.55-1.69-56.31-.32-7.26-2.09-14.32-5.7-20.86-4.46-8.07-6.42-16.99-8.03-25.98-.43-2.42-.99-4.82-1.53-7.43-1.09.43-1.8.71-2.52.99-2.87-8.25.05-13.86,6.61-13.86,1.01-2.46,1.41-5.28,3.03-6.87,1.5-1.48,4.29-1.64,6.53-2.39.88-1.86,1.46-4.91,3.3-6.44,1.73-1.43,4.79-1.26,7.68-1.88-.05-3.21.26-7.24,5.4-8.18,4.64-.85,7.15,2.6,10.03,5.24,1.97-.6,2.79-1.76,2.86-3.83.11-3.12,1.19-5.96,3.79-7.97,2.73-2.11,4.82-1.57,5.77,1.76,2.18,7.66,5.63,14.61,11.29,20.28,2.57,2.57,5.5,4.78,8.58,7.42-3.84,2.85-7.55,5.83-11.5,8.46-2.55,1.69-3.59,3.62-3.64,6.74-.04,2.66-.85,5.45-1.92,7.92-2.49,5.74-5.35,11.31-8.03,16.97-2.22,4.68-3.12,9.62-2.63,14.77,2.51,26.33,5.82,52.56,12.64,78.16,3.88,14.56,9.02,28.78,13.61,43.16.1.32.3.6.54,1.08ZM320.07,334.79c.16.31.32.63.48.94,1.37.31,2.74.86,4.11.87,5.87.08,10.95-1.98,15.27-5.99,3.22-2.99,5.02-6.52,4.66-11.01-1.82-22.87-12.14-40.51-32.63-51.31-10.93-5.76-22.53-6.32-34.12-1.19-2.58,1.14-4.26,2.85-5.59,5.35-5.37,10.06-10.47,20.31-16.55,29.94-10.15,16.09-23.46,29.74-35.63,44.27-7.44,8.89-14.7,17.93-21.85,27.05-1.26,1.6-2.16,3.95-2.19,5.97-.25,14.53-4.46,27.49-14.16,38.53-1.49,1.7-2.73,3.74-3.62,5.82-2.32,5.45.65,9.81,6.57,9.42,2.67-.17,5.51-.95,7.86-2.22,5.09-2.75,10.12-5.7,14.81-9.07,22.24-16,42.68-34.15,62.3-53.22,14.13-13.73,27.85-27.87,42.12-41.45,5.01-4.77,11-8.56,16.76-12.47,2.53-1.71,5.63-2.59,9.52-1.23-6.24,7.22-12.18,14.1-18.12,20.98ZM283.88,83.76c-1.12,0-2.72-.49-3.33.09-2.28,2.15-2.76-.03-3.71-1.23-.42-.53-.85-1.05-1.28-1.57-.56.53-1.27.98-1.65,1.62-1.64,2.77-3.17,5.6-4.77,8.39-3.79,6.58-5.48,13.55-4.6,21.19.63,5.38.86,10.82,1.19,16.23.49,7.93,1.47,15.74,4.05,23.31,2.09,6.1,6.22,9.75,12.56,10.54,3.72.46,7.54.73,11.27.42,16.93-1.42,27.06-10.12,31.28-26.54,1.52-5.93,4.24-11.14,8.79-15.34,3.72-3.43,7.49-6.82,10.98-10.47,3.09-3.23,5.47-7.03,5.55-11.7.02-1.31-.85-3.73-1.44-3.77-3.66-.23-7.86-1-10.88.48-3.24,1.58-6.02,2.01-9.25,1.65.37-3.74-4-1.8-4.68-4.27,1.1.14,2.11.28,2.4.31-.95-1.92-1.98-3.99-3.2-6.47-2.77-1.19-5.45,3.43-9.19,1.37,5.76-4.91,11.94-4.63,18.43-2.4-4.51-4.8-9.76-3.54-15.15-2.41,1.35-.97,2.8-2.01,4.27-2.05,7.99-.23,14.5,3.2,20.01,9,1.01-1.46,1.9-2.63,2.68-3.87,1.77-2.8,1.64-4.09-.82-6.22-3.1-2.68-6.7-4.12-10.85-4.17-6-.07-11.54,1.75-16.42,4.96-3.44,2.26-6.5,5.27-4.88,10.33.27.85-.38,2.41-1.11,3.11-3.73,3.55-5.64,7.44-3.15,12.51.04.08.04.18.05.27.92,5.16-1.12,7.67-6.3,7.38-2.86-.16-5.71-.72-8.52-1.31-1.29-.27-2.6-.87-3.66-1.65-1.21-.88-1.98-2.5-3.27-3.12-2.66-1.27-3.5-2.82-2.18-6.44.28.64.35,1.05.58,1.31,2.66,2.94,9.89,1.8,11.61-1.85.22-.47.37-1.1.27-1.6-.69-3.18.79-5.74,2.25-8.31,3.12-5.49,6.85-10.46,11.94-14.32.7-.53,1.17-1.74,1.24-2.67.21-2.53,1.46-4.3,4-4.43,4.67-.24,9.35-.33,14.03-.28,6.31.07,11.92,2.08,16.49,6.6.34.34.83.53,1.1.7,1.02-4.23,2.2-8.28,2.94-12.41.6-3.32,1.1-6.77.89-10.11-.72-11.35-7.25-18.68-17.05-23.6-2.03-1.02-3.98-2.27-5.8-3.63-1.65-1.23-1.91-3.05-.47-4.56,3.14-3.31,6.45-6.48,9.71-9.68.51-.5,1.12-.89,1.69-1.32-1.45-.19-2.62.02-3.7.46-6.11,2.5-10.64,6.77-13.94,12.45-1.43,2.46-2.1,2.55-4.17.6-1.2-1.13-2.21-2.47-3.35-3.66-6.38-6.63-18.32-6.85-23.88-.46,9.81-2.96,16.63-1.29,18,3.93-3.86,1.89-8.03,3.17-11.28,5.66-9.43,7.23-13.29,18.08-17.53,28.06,2.41.51,4.61.8,6.68,1.47,1.73.56,3.26,1.75,4.99,2.33,6.13,2.08,4.91,7.82,6.17,12.28.42,1.48.08,3.17.06,4.77,0,.1-.27.19-.72.49-1.2-1.26-2.31-2.74-3.73-3.82-1.36-1.04-2.96-1.97-4.59-2.39-1.57-.4-3.33-.09-5-.09,0,.23,0,.47,0,.7.79.11,1.59.18,2.37.34,3.69.74,7.14,1.99,9.28,5.35.42.66.42,1.73.24,2.53-.06.28-1.23.46-1.88.45-1.74-.05-3.48-.36-5.22-.33-2.33.05-3.42-.95-3.42-3.26,0-.6-.15-1.19-.33-2.56-1.44,1.07-2.45,1.82-3.46,2.56,1.17,1.28,2.34,2.57,3.78,4.15ZM223.78,319.28c.54-1.04.81-1.41.94-1.82,3.58-11,9.82-20.29,18.03-28.37,3.34-3.28,6.53-6.75,9.46-10.4,1.48-1.84,2.22-4.26,3.3-6.42-4.17,4.32-7.81,8.87-12.67,12.26.85-2.02,1.95-3.82,3.21-5.5,6.41-8.6,11.88-17.61,14.7-28.18,3.38-12.71,10.5-23.03,21.74-30.23,1.02-.66,2.05-1.31,3.08-1.96-10.08,8.8-16.49,19.72-20.22,32.34.57-.59,1-1.26,1.41-1.94,6.75-11.11,15.35-20.4,26.52-27.22,11.94-7.29,25.07-10.85,38.79-12.65,10.23-1.34,19.76-4.41,27.4-11.79,9.12-8.81,12.18-19.71,10.94-32.05-.35.33-.49.72-.55,1.13-2.72,19.31-16.6,34.84-38.16,37.99-9.99,1.46-19.88,3.61-29.81,5.45-.53.1-1.05.2-1.58.31,10.99-7.28,23.11-12.67,32.97-21.86-13.82,6.04-27.46,11.8-40.92,17.96-16.65,7.61-30.33,18.68-37.73,35.91-6.19,14.42-14.99,26.92-25.46,38.47-8.26,9.11-14.59,19.38-16.9,31.76-1.3,7-1.24,13.92.33,20.9.59-9.87,2.99-19.22,7.61-27.93,4.63-8.74,11.09-16.05,18.27-22.84-7.12,11.1-13.49,22.47-14.7,36.72ZM352.72,308.85c.38-1.43.73-2.2.76-2.97.22-6.68,1.11-13.44.42-20.04-1.69-16.12-7.68-30.47-20.18-41.38-12.85-11.22-30.16-11.13-43.02.04-4.01,3.48-7.24,7.61-9.94,12.22,4.77-.76,9.25-1.91,13.78-2.12,14.52-.69,26.45,5.48,36.74,15.08,11.22,10.46,18.16,23.45,21.44,39.17ZM371.01,31.29l-.88.59c1.07,1.65,2.19,3.27,3.2,4.95,14.49,24.12,22.17,50.62,27.06,78.06,3.42,19.21,6.61,38.46,14.23,56.63,5.15,12.29,10.88,24.38,13.54,37.58.01.07.21.1,1.27.55-2.09-8.35-3.77-16.16-6.03-23.79-3-10.14-7.14-19.98-9.56-30.24-4.22-17.9-7.46-36.03-11.19-54.05-3.69-17.83-8.66-35.27-18.21-50.97-4.07-6.69-8.93-12.9-13.43-19.32ZM287.82,202.98c.23.22.45.43.68.64,6.98-6.5,14.19-12.66,23.09-16.46-1.7,1.84-3.4,3.68-5.11,5.52,4.5-2.78,8.5-6.06,12.88-8.71,5.5-3.32,11.32-6.11,16.99-9.14,8.78-4.68,16.66-10.44,22.47-18.71,4.95-7.04,6.91-14.96,7.33-23.93-.55.63-.82.8-.87,1.02-2.04,10.16-8.13,17.78-16.18,23.55-6.98,5.01-14.64,9.12-22.24,13.19-10.36,5.55-20.24,11.71-28.33,20.33-3.78,4.03-7.16,8.45-10.72,12.69ZM281.17,31.63c-.14-.08-.27-.17-.41-.25-.54.67-1.21,1.27-1.6,2.02-2.47,4.71-5.39,9.27-7.19,14.23-3.05,8.37-5.35,17.02-8.04,25.53-5.01,15.87-10.35,31.62-11.84,48.39-1.41,15.97-2.72,31.91-1.16,47.94.08.86.22,1.72.33,2.58.77-2.18,1.12-4.34,1.28-6.51.94-12.66,1.74-25.34,2.79-37.99.8-9.56,2.22-19.05,6.26-27.87,5.22-11.39,8.1-23.41,10.53-35.64,1.84-9.27,4.43-18.39,6.81-27.54.44-1.71,1.48-3.27,2.24-4.89ZM376.41,262.88c.11-.9.21-1.16.16-1.39-2.95-16.49-10.06-31.22-19.15-45.12-1.49-2.28-3.48-2.86-5.95-2.2-9.32,2.48-18.64,4.96-27.94,7.54-2.12.59-4.14,1.54-6.2,2.33.63.45,1.07.35,1.51.26,11.62-2.23,22.5-.55,32.39,6.21,10.62,7.27,17.99,17.2,23.44,28.7.5,1.05.99,2.1,1.74,3.67ZM206.49,276.42c.31,0,.62,0,.93,0,.87-2.8,1.66-5.63,2.62-8.41,3.45-10.02,9.75-18.3,16.33-26.37,13.15-16.14,21.65-34.3,24.18-55.08.29-2.37.27-4.79.39-7.18-.25-.03-.49-.06-.74-.08-.2.74-.43,1.48-.61,2.22-3.54,14.72-7.69,29.24-16.22,41.98-4.6,6.87-9.76,13.37-14.63,20.06-4.69,6.43-8.8,13.22-10.67,21.03-.92,3.85-1.07,7.88-1.57,11.84ZM425.62,256.17c-1.49,7.75-1.29,15.39.51,23.01,2.49,10.5,7.89,19.76,12.31,29.44.04.08.33.04.57.06.93-5.84.39-11.53-1.31-17.18-3.58-11.92-11.32-22.41-12.08-35.33ZM421.34,300.35c-.28.13-.57.27-.85.4,1.29,4.5,2.57,8.99,3.85,13.49,1.26,4.42,2.74,8.8,3.7,13.28.98,4.57,1.71,9.23,2.06,13.89.34,4.53.07,9.11.07,13.91,3.84-9.28,5.57-18.75,2.4-28.15-3.09-9.16-7.44-17.9-11.24-26.83ZM293.51,76.09c-.37-1.26-.41-1.64-.59-1.93-2.96-4.79-7.5-7.77-12.32-10.28-1.89-.98-3.57.21-4.71,1.83-1.57,2.22-1.32,6.62.22,8.71,5.9-3.13,11.42-2.26,17.4,1.67ZM237.98,239.27c-13.16,12.98-22.17,29.51-20.83,38.39,4.52-14.38,13.9-25.68,20.83-38.39ZM301.94,108.72c.48-1.05,1.09-1.77.92-2.18-.25-.63-.97-1.26-1.62-1.48-.27-.09-1.38,1.07-1.28,1.3.33.73,1.03,1.3,1.97,2.36Z"/>
      <path class="cls-1" d="M152.57,22.63c36.73,0,73.45,0,110.18,0,.92,0,1.85-.06,2.76.03,2.65.24,3.34,1.78,2.01,4.07-6.06,10.41-12.33,20.71-18.04,31.32-7.46,13.85-12.1,28.79-15.85,44.01-.18.71-.42,1.42-.52,2.14-.31,2.33-1.52,3.1-3.93,3.09-17.95-.1-35.9-.05-53.85-.05-44.37,0-88.73.05-133.1-.08-14.86-.04-26.88-6.3-34.94-18.78-8.95-13.85-9.72-28.69-1.96-43.26,7.71-14.48,20.3-22.24,36.77-22.35,36.82-.25,73.64-.08,110.45-.08v-.04Z"/>
      <path class="cls-1" d="M115.98,192c-4.72,5.26-5.8,10.64-5.08,16.61.11.93-1.06,2.23-1.93,3.03-7.14,6.51-14.31,12.99-21.56,19.38-4.65,4.1-7.32,9.11-7.88,15.3-.08.91-.53,1.98-1.17,2.61-7.03,6.93-13.57,14.27-19.01,22.54-.43.65-1.41,1.34-2.13,1.33-7.63-.09-15.34.32-22.87-.62C15.23,269.79.35,251.99.28,232.22c-.08-20.74,13.88-37.99,33.35-41.04,2.71-.43,5.51-.43,8.26-.43,22.92-.03,45.84-.03,68.76.05,1.57,0,3.13.69,5.33,1.21Z"/>
      <path class="cls-1" d="M79.95,444.03c-12.89,0-25.77.16-38.65-.04-15.85-.25-28.09-7.32-35.71-21.16-7.63-13.86-7.55-28.24.92-41.75,7.13-11.38,17.29-18.01,31.48-18.17,6.34-.07,9.35,1.39,12.01,7.57,7.61,17.74,21.06,30.5,37.51,40.38,8.58,5.15,17.15,10.44,25.05,16.54,4.38,3.39,7.54,8.46,10.92,13.01,1.88,2.54,1.14,3.57-2.1,3.58-13.81.03-27.61.01-41.42.01h0Z"/>
      <path class="cls-1" d="M119.75,214.65c.8,3.75,1.33,7.31,2.34,10.74,1.55,5.28,3.32,10.5,5.2,15.68.55,1.53.62,2.39-.82,3.44-6.26,4.54-12.42,9.2-18.63,13.81-3.54,2.63-7.31,3.75-11.64,1.93-.59-.25-1.78.15-2.32.65-21.83,20.11-34.35,44.64-33.04,74.72,1.08,24.74,12.73,43.96,33.84,57.24,9.26,5.82,18.94,11.11,27.63,17.69,12.85,9.73,21.32,22.74,24.87,38.66.78,3.48-.68,5.94-3.68,6.6-2.89.64-5.36-1.11-6.14-4.48-3.69-15.92-13.07-27.8-26.38-36.75-5.64-3.79-11.58-7.17-17.48-10.55-25.85-14.82-40.55-36.9-42.95-66.69-1.48-18.38,3.09-35.6,11.39-51.93,6.21-12.21,14.61-22.73,24.6-32.01,1.3-1.21,2-2.33,1.71-4.27-.54-3.69.72-7.07,3.4-9.54,8.92-8.24,18.01-16.31,27.04-24.43.19-.17.48-.23,1.07-.51Z"/>
      <path class="cls-1" d="M142.68,419.38c-.23-.5-.39-1.06-.72-1.49-8.2-10.72-18.76-18.57-30.28-25.37-7.12-4.2-14.15-8.6-20.87-13.4-5.5-3.93-9.38-9.46-13.08-15.93,1.53,0,2.48,0,3.43,0,16.48,0,32.96-.01,49.43-.04,1.37,0,2.44-.08,2.61,1.85,1.54,17.84,5.16,35.29,9.93,52.53.12.42.15.86.23,1.29-.23.19-.46.38-.69.56Z"/>
      <path class="cls-1" d="M211.06,133.93c18.54-.24,31.34,19.69,23.39,36.8-1.82,3.91-4.98,7.2-7.55,10.76-.93,1.28-1.87,1.33-3.22.32-13.48-10.13-22.88-23.22-28.62-39.02-.89-2.45-.28-3.8,2.04-5.05,4.4-2.35,8.98-3.73,13.95-3.81Z"/>
      <path class="cls-1" d="M219.54,186.79c-6.84,5.94-17.49,6.35-24.19.98-7.65-6.14-12.72-14.05-15.02-23.53-.59-2.43-.06-5.32.59-7.83,1.23-4.81,3.91-8.87,8-12.43,5.52,17.78,15.71,32.01,30.62,42.83Z"/>
      <path class="cls-1" d="M95.41,272.68c1.61-2.16,3.04-3.29,5.53-3.04,4.63.47,8.63-1.46,12.28-4.07,4.69-3.35,9.28-6.85,14.66-10.85.93,6.29,1.77,11.97,2.66,17.95h-35.13Z"/>
      <path class="cls-1" d="M290.85,144.08c-5.76.13-10.99-1.73-13.86-7.73-.85-1.78-1.56-3.79-1.66-5.73-.11-2.3,1-4.72-1.35-6.57-.24-.19-.25-.91-.12-1.29,1.68-4.81,7.64-6.63,12.04-3.92,1.28.79,3.02.82,4.54,1.25,2.49.72,5.23,1.05,7.4,2.33,4.17,2.47,8.02,5.48,11.99,8.29,2,1.42,1.78,2.61-.3,3.82-1.71,1-3.26,2.33-4.69,3.71-3.8,3.64-8.07,6.06-13.99,5.84ZM299.03,131.6c.07-.27.15-.54.22-.8-.35-.39-.65-.86-1.07-1.15-4.37-3.1-9.62-3.69-14.61-5-.17-.05-.41-.08-.54,0-.7.46-1.61.84-1.95,1.5-.16.32.63,1.56,1.22,1.77,3.43,1.23,6.88,2.45,10.41,3.31,2.02.49,4.21.28,6.32.39ZM294.63,134.78c-4.23-.93-8.37-1.87-12.54-2.69-.45-.09-1.41.46-1.49.85-.12.55.19,1.4.62,1.81,3.11,3.06,9.83,3.09,13.41.03Z"/>
    </g>
  </g>
</svg>
